<svg version="1.1" id="Layer_1" xmlns="http://www.w3.org/2000/svg" x="0" y="0" viewBox="0 0 68.8 68.8" xml:space="preserve"><style type="text/css">.st0{fill:#ae936c}</style><path class="st0" d="M59.7 34.4c0 14-11.3 25.3-25.2 25.3S9.2 48.4 9.2 34.4 20.5 9.1 34.4 9.1s25.3 11.3 25.3 25.3M34.4.2c18.8 0 34.1 15.3 34.1 34.2 0 18.8-15.3 34.2-34.1 34.2S.3 53.3.3 34.4C.3 15.6 15.6.2 34.4.2zm0 67.2c18.2 0 32.9-14.8 32.9-33s-14.8-33-32.9-33c-18.2 0-32.9 14.8-32.9 33s14.7 33 32.9 33zM4.3 28.8l1.7.4c.2.1.4.1.6.1.2 0 .4-.1.5-.2.2-.1.3-.2.4-.4.1-.2.2-.4.3-.8.2-.3.2-.6.2-.8 0-.2-.1-.4-.2-.6-.1-.2-.3-.3-.4-.4-.2-.1-.4-.2-.6-.2l-1.7-.4c-.1 0-.1 0-.1-.1v-.1h-.1l-.4 1.3h.1l.1-.1h.1l1.9.5c.3-.1.4 0 .4.2.1.2.1.3 0 .5 0 .3-.1.4-.2.5-.1.1-.3.1-.5.1l-1.9-.5c-.1 0-.1 0-.1-.1v-.1h-.1L4.1 29h.1c0-.1 0-.1.1-.1-.1-.1 0-.1 0-.1zm5.7-7.1l-2.8-1.2c-.1 0-.1-.1-.1-.1v-.1H7l-.6 1.2h.1c0-.1.1-.1.1-.1h.1l1.5.7c-.2-.2-.4-.1-.6 0-.2.1-.4.1-.6.2-.2.1-.3.1-.5.1-.1 0-.2.1-.2 0-.1 0-.1-.1-.1-.1v-.1h-.1l-.6 1.6h.1l.1-.1h.1L8.6 25v.1h.1l.5-1.2h-.1L9 24h-.1L7 23.1l.9-.3c.3-.1.6-.2.8-.3.2-.1.4-.1.6-.2.2 0 .3-.1.3 0 0 0 .1.1 0 .1v.1h.1l.6-1.2h-.1c0 .1-.1.1-.1.1 0 .3 0 .3-.1.3zm-1-4.9h.2s.1 0 .3.1c.2.1 2.4.9 2.6 1 .2.1.3.1.3.1s.1.1 0 .1v.1l.1.1.9-1.2-.1-.1-.1.1h-.1l-.2-.2c-.1-.1-1.5-2.5-1.6-2.6v-.1-.2l-.8.9.1.1.1-.1h.1s.1.1.1.2c.1.1.9 1.5 1 1.6 0 0-1.8-.6-1.9-.7h-.1v-.1s0-.1.1-.1l-.1-.1-.9 1.1zm7.3-3.8l-1.5 1.4-.5-.6 1-.9h.1s.1 0 .1.1l.1-.1-.7-.8-.1.1.1.1v.1l-1 .9-.4-.5 1.6-1.5h.1s.1 0 .1.1l.1-.1-.7-.8-.1.1c0 .1.1.1.1.1v.1L12 13.2l.1.1.1-.1h.1l2.1 2.2v.1s0 .1-.1.1l.1.1 2.4-2.3.1-.1h.2l-.7-.8-.1.1c.1.3.1.3 0 .4zM16 9.9l1.7 2.5v.1s0 .1-.1.1l.1.1 1-.7-.1-.1h-.1s-.1 0-.1-.1l-.5-.8.6-.4s.8.4.9.5c.1.1.2.1.2.1v.1l-.1.1.1.1 1.3-.8-.1-.1H20.5l-1.2-.6c.1-.2.2-.4.3-.7 0-.2 0-.5-.2-.7-.2-.3-.5-.5-.7-.5-.3 0-.6.1-.9.3l-1.9 1.4.1.1h.1c-.1-.1-.1 0-.1 0zm1.5.6l-.5-.7.8-.6c.2-.1.3-.2.4-.1.1 0 .2.1.3.2.1.1.1.2.1.3 0 .1-.1.2-.2.3l-.9.6zm3.7-1.4l.2 1.1h.1v-.1s0-.1.1-.1h.2c.1 0 .2 0 .4-.1.2 0 .3-.1.5-.1.2-.1.3-.1.5-.2.3-.1.5-.2.6-.4 0-.1.2-.3.2-.4.1-.2.1-.3.1-.5s0-.3-.1-.4c-.1-.2-.2-.4-.4-.4-.2-.1-.3-.1-.5-.1s-.4 0-.6.1c-.2.1-.4.1-.6.2-.2.1-.3.1-.4.1-.1 0-.2 0-.2-.1v-.2c0-.1.1-.1.2-.2l.2-.2c.1 0 .1-.1.2-.1.1-.1.2-.1.4-.1.1 0 .2 0 .3-.1h.4V5.7h-.1v.1s0 .1-.1.1c0 0-.1 0-.2.1-.1 0-.2 0-.3.1-.1 0-.3.1-.4.1-.2 0-.3.1-.5.2-.3.1-.5.3-.6.4-.2.2-.3.3-.3.5-.1.2-.1.3-.1.5s0 .3.1.4c.1.2.2.3.4.4.2.1.3.1.5.1s.4-.1.6-.1c.2-.1.4-.1.6-.2.2-.1.3-.1.4-.1.1 0 .2 0 .3.1v.2c0 .1-.1.1-.1.2-.1.1-.1.1-.2.1s-.1.1-.2.1c-.1.1-.3.1-.4.2-.2 0-.3.1-.5.1h-.4c-.1 0-.2 0-.2-.1l-.1-.1zm8.6-5.3l-3 .6h-.1l-.1-.1h-.1l.2 1.2h.1v-.2l.1-.1 1-.2.5 2.4v.1s-.1 0-.1.1v.1l1.3-.3v-.1h-.1s-.1 0-.1-.1L29 4.9l1-.2h.1l.1.1h.1L30 3.6h-.1c0 .1 0 .2-.1.2.1 0 .1 0 0 0zm3.7 3.1l-.1-1.1 1.1-2.1s0-.1.1-.1h.1v-.1h-1.4v.1h.1s.1 0 .1.1c0 0 0 .1-.1.2 0 .1-.4.9-.5.9-.1-.1-.6-.8-.7-.9 0-.1-.1-.1-.1-.2 0 0 0-.1.1-.1h.1v-.1l-1.5.1v.1h.1s.1 0 .1.1l1.5 2 .1 1v.1h-.1V7l1.3-.1v-.1h-.1l-.2.1zM40.2 4h-.7c-.2 0-.5.1-.7.2-.2.1-.4.3-.6.5-.2.2-.3.5-.3.8-.1.3-.1.6 0 .8.1.2.2.5.3.6.2.2.3.3.6.4.2.1.4.2.7.2.2 0 .5.1.7 0 .2 0 .5-.1.7-.2.2-.1.4-.3.6-.5.2-.2.3-.5.3-.8.1-.3.1-.6 0-.8-.1-.2-.2-.5-.3-.6-.2-.2-.3-.3-.6-.4-.3-.1-.5-.1-.7-.2zm-.2.9c.1 0 .3.1.4.1.1.1.2.1.3.2.1.1.1.2.2.3v.4c0 .1-.1.3-.2.4l-.3.3c-.1.1-.2.1-.3.1h-.4c-.1 0-.3-.1-.4-.1l-.3-.3c-.1-.1-.1-.2-.2-.3v-.4c0-.1.1-.3.2-.4l.3-.3c.1-.1.2-.1.4-.1.1 0 .2 0 .3.1zm3.1.1l-1 2.9c0 .1 0 .1-.1.1h-.1v.1l1.3.4v-.1c-.1 0-.1-.1-.1-.1v-.1l.4-1 1.3.4.1.1v.2h.1l.4-1h-.1c-.2 0-.3 0-.3.1h-.1l-1.3-.4.2-.7 1.9.6.1.1v.2h.1l.4-1h-.1c0 .1-.1.1-.1.1H46l-3-1V5c.1 0 .1.1.1.1.1-.2.1-.1 0-.1zM49 9.6l1.4.9-.6 1c0 .1-.1.1-.1.1s-.1 0-.1-.1l-.1.1 1.1.8.1-.1-.1-.1v-.1l1.6-2.6c0-.1.1-.1.1-.1h.1l.1-.1-1.1-.8-.1.1.1.1v.1l-.5.9-1.4-.9.5-.8h.2v-.1L49 7.2l-.1.1.1.1v.1l-1.6 2.6c0 .1-.1.1-.1.1s-.1 0-.1-.1l-.1.1 1.2.7.1-.1-.1-.1v-.1l.7-1zm4.4 5.2l.9.9.1-.1-.1-.1v-.1c.1-.1 1-3.1 1.1-3.2 0-.1.1-.2.1-.2h.1l.1-.1-1.1-1-.1.1v.1s-.1.1-.3.2c-.2.1-2.5 1.2-2.8 1.4h-.1-.1l-.1.1.9.7.1-.1v-.1l.1-.1.4-.2 1.3 1.1s-.1.4-.2.5v.1h-.1c-.1.1-.1.1-.2.1zm.6-1.2l-.9-.8 1.4-.7-.5 1.5zm5.2 9.3l.5 1.1h.1v-.1-.1c.1-.1 2-2.5 2.1-2.6.1-.1.1-.2.2-.2h.2l-.7-1.3h-.1v.1s-.1 0-.3.1c-.2 0-2.7.3-3.1.3H58l-.1-.1h-.1l.6 1h.1V21v-.1h.6l.8 1.5-.3.4-.1.1H59.2zm1-.9l-.6-1.1 1.5-.1-.9 1.2zM58 14.5l-.8-1-.1.1v.2l-1.9 2.6s-.1 0-.2-.1l-.1.1 1 1.2.1-.1s0-.1-.1-.1v-.1s.1 0 .2-.1c.1 0 1.5-.5 1.6-.5.1 0 .2-.1.2-.1s-.1.1-.1.2c-.1.1-.9 1.3-.9 1.4-.1.1-.1.1-.1.2 0 0-.1 0-.2-.1l-.1.1.9 1.3.1-.1c-.1-.1 0-.2 0-.2l2.8-1.1h.2s.1 0 .1.1l.1-.1-.7-1-.1.1.1.1s0 .1-.1.1l-1.9.8 1.1-1.6.1-.1h.1l.1.1.1-.1-.9-1.2-.1.1s0 .1.1.1c0 0 0 .1-.1.1 0 0-.1 0-.2.1-.1 0-1.8.6-1.9.6l1.3-1.7h.1c.1-.3.1-.2.2-.3zm5.7 10.3l-.5-1.4h-.1v.2s0 .1-.1.1l-2.9 1H60s-.1-.1-.1-.2h-.1l.5 1.4h.1v-.2s0-.1.1-.1l2.9-1h.1l.2.2zm-38.1-20l-1.4.5v.1h.2s.1 0 .1.1l1 2.9v.1s-.1.1-.2.1v.1l1.4-.4v-.1h-.2c-.1 0-.1 0-.1-.1l-1-2.9v-.1c.1-.1.1-.2.2-.3zM8.5 17.7l-.8 1.2h.1c0-.1.1-.1.1-.1H8l2.6 1.6c.1 0 .1.1.1.1s0 .1-.1.2h.1l.8-1.2-.1-.1c0 .1-.1.1-.1.1h-.1L8.6 18l-.1-.1v-.2zm56.3 11.2l-.3-1.4h-.1v.2s0 .1-.1.1l-3 .6h-.1s0-.1-.1-.2H61l.3 1.4h.1v-.2s0-.1.1-.1l3-.6h.1c0 .1 0 .2.2.2zm-.1-2.3l.2-.1-.3-.3c-.1-.1-.2-.2-.4-.3-.1-.1-.3-.1-.4-.1h-.5c-.2.1-.3.1-.5.3-.1.1-.1.3-.1.5 0 .1.1.3.3.3.1.1.3.1.4.1.2-.1.3-.2.4-.3.1-.1.1-.3 0-.5.2 0 .3 0 .5.1s.3.2.4.3zM41 60.7l.9-.3m-.9.1l.1.4.9-.3-.1-.4-.9.3zm15.5-5.2l.7-.7-.1-.1H57h-.1l-1.6-.5c0-.1-.1-.6-.1-.8v-.4-.2l-.1-.1-.7.7H54.7V53.5c0 .1.1 1.1.1 1.2l-.8-.8v-.1-.1l-.1-.1-.7.7.1.1.1-.1h.1l1.7 1.6v.2l.1.1.7-.7v.3s-.1 0-.1.1h-.1l-.4-.4-.1-.7 1 .3h.1v.1c.1 0 .1.1.1.1zM43 63.6l.8-.2v-.1h-.1c-.1-.1-1.4-1.9-1.4-2l-.1-.1V61l-1 .3v.1h.1v.3c0 .2-.2 2-.2 2.3v.1H41v.1l.7-.2v-.1-.1-.4l1.1-.3.2.3v.2zm-.5-.9l-.8.3.1-1.2.7.9zm8-2.4l.7-.4v-.1h-.1-.1c-.1-.1-1.8-1.4-1.9-1.5l-.1-.1V58l-.9.5v.1h.1s0 .1.1.3c0 .2.4 2 .4 2.3v.2l.6-.4v-.1-.1l-.1-.3 1-.6s.2.2.3.2l.1.1c-.1-.1-.1-.1-.1.1 0-.1 0-.1 0 0zm-.7-.8l-.7.4-.2-1.1.9.7zm8.9-6.8l.5-.7h-.1-.1-.1c-.1 0-2.2-.7-2.3-.7-.1 0-.2-.1-.2-.1v-.1h-.1l-.5.9h.2l.2.2c.1.1 1.1 1.7 1.2 1.9v.2l.1.1.5-.6h-.1-.1v-.1l-.2-.3.7-.9.3.1h.1c-.1 0 0 0 0 .1-.1 0-.1 0 0 0zm-.9-.4l-.5.7-.6-1 1.1.3zm-17.7 9.3v-.2c-.1.1-.2.1-.2.2-.1.1-.1.2-.2.3-.1.1-.1.2-.1.3v.4c0 .2.1.3.2.4h.2c.1 0 .2-.1.2-.2.1-.1.1-.2.1-.3 0-.2-.1-.3-.2-.3-.1-.1-.2-.1-.3 0 0-.1 0-.3.1-.3 0-.2.1-.3.2-.3zm4.1-1.3l-.9.3v.1h.1s.1 0 .1.1l.8 2.2v.1s-.1 0-.1.1v.1l.9-.3v-.1H45s-.1 0-.1-.1l-.8-2.2v-.1c.1 0 .1-.1.1-.2zm7.6-4.3l-.8.6v.1s.1 0 .1-.1h.1l1.5 1.9v.1s0 .1-.1.1l.1.1.8-.6v-.1s-.1 0-.1.1h-.1l-1.5-1.9v-.1-.2zm-3.7 5.4l-1-2.1v-.1l.1-.1V59l-.8.4v.1h.1s.1 0 .1.1l.5 1.1c-.2-.1-1.1-.7-1.2-.7-.1 0-.1-.1-.1-.1v-.1h.1v-.1l-1.1.5v.1h.1s.1 0 .1.1l1 2.1v.1l-.1.1v.1l.8-.3v-.1h-.1s-.1 0-.1-.1l-.7-1.5c.2.1 1 .6 1.2.6.2.1.3.2.4.2.1.1.2.1.2.1v.1s-.1 0-.1.1v.1l.8-.4v-.1c-.1 0-.1 0-.2-.1 0 .1 0 0 0 0zm15.4-18.9l-2.2-.7s-.1 0-.1-.1v-.1h-.1l-.2.8h.1s0-.1.1-.1h.1l1.2.4c-.2.1-1.2.4-1.3.4H61s-.1 0-.1-.1v-.1h-.1l-.4 1.1h.1s0-.1.1-.1h.1l2.2.7s.1 0 .1.1v.1h.1l.3-.8h-.1s0 .1-.1.1h-.1l-1.5-.5c.2-.1 1.1-.4 1.3-.4.2-.1.3-.1.4-.2.1 0 .2-.1.2 0v.2h.1l.3-.9h-.1c-.1.2-.2.2-.3.2.1 0 .1 0 0 0zM58.2 49l2 1.2s.1 0 .1.1v.1h.1l.4-.7h-.1l-.1.1h-.1l-.7-.4.3-.5c.1-.1.1-.2.2-.3v-.3c0-.1-.1-.2-.1-.3l-.3-.3c-.2-.1-.3-.1-.4-.2h-.3c-.1 0-.2.1-.3.2-.1.1-.1.2-.2.3l-.7 1h.1.1c-.1 0-.1 0 0 0zm1.2 0l-.6-.4.3-.4c.1-.1.1-.2.2-.2s.2 0 .3.1c.1.1.2.1.2.2s0 .2-.1.3l-.3.4zm.3-3.4c-.1.1-.1.3-.1.5s0 .3.1.5.1.3.3.5c.1.1.3.3.5.4.2.1.4.2.6.1.2 0 .4 0 .5-.1.2-.1.3-.2.4-.3.1-.1.2-.3.3-.4.1-.1.1-.3.1-.5s0-.3-.1-.5-.1-.3-.3-.5c-.1-.1-.3-.3-.5-.4-.2-.1-.4-.1-.6-.1-.2 0-.4 0-.5.1-.2.1-.3.2-.4.3-.2.1-.2.3-.3.4zm.6.3c0-.1.1-.2.2-.2.1-.1.1-.1.2-.1h.3c.1 0 .2 0 .3.1.1 0 .2.1.3.2l.2.2c0 .1.1.2.1.3 0 .1 0 .2-.1.3 0 .1-.1.2-.2.2-.1.1-.1.1-.2.1h-.3c-.1 0-.2 0-.3-.1-.1 0-.2-.1-.3-.2l-.2-.2v-.3c-.1-.1 0-.2 0-.3zM7.2 47.6l1.6-.8-1.3 1.5 1.9-.2-1.6.8h-.1l-.1-.1h-.1l.4.7H8v-.1s0-.1.1-.1l2.1-1.1H10.5l-.5-1h-.1v.1h-.2c-.1 0-.9.1-1 .1 0 0 .6-.6.6-.7l.1-.1v.1h.1l-.5-1h-.1v.1s0 .1-.1.1L7 47.1h-.1l-.1-.1h-.1l.3.7h.1l.1-.1c-.1 0-.1 0 0 0zm4.9 3.6l-1.1.9-.3.3c-.1.1-.1.3-.2.4v.4c0 .2.1.3.3.5.1.2.3.3.4.4.1.1.3.1.4.1.1 0 .3 0 .4-.1.1-.1.3-.1.4-.3l1.1-.9h.1s.1 0 .1.1h.1l-.6-.7h-.1v.2l-1.2 1c-.1.1-.2.1-.3.1-.1 0-.2-.1-.3-.2-.1-.1-.1-.2-.1-.3 0-.1.1-.2.2-.3l1.2-1H12.9l-.6-.7h-.1c0-.1 0-.1-.1.1.1-.1.1-.1 0 0zM6.9 39l-1.4.3c-.2 0-.3.1-.4.2l-.3.3c-.1.1-.1.2-.2.4v.6c0 .2.1.4.2.5l.3.3c.1.1.3.1.4.1H6l1.4-.3h.1v.1h.1l-.2-.9h-.1v.1h-.1l-1.4.3c-.2 0-.3 0-.4-.1-.1-.1-.2-.2-.2-.3v-.4c0-.1.2-.2.3-.2l1.5-.3h.1v.1h.1l-.2-.9h-.1c.1 0 .1.1 0 .1.1 0 .1 0 0 0zM18 59.4l-1.1-.8.4-.5.8.5v.2h.1l.5-.7h-.1l-.1.1h-.1l-.8-.5.3-.4 1.2.8v.1s0 .1-.1.1h.1l.5-.7h-.1l-.1.1h-.1l-1.8-1.3v.1l.1.1v.1l-1.4 1.9s-.1.1-.1 0H16v.1l1.8 1.3s.1 0 .1.1v.1l.5-.7c-.3-.1-.3 0-.4-.1zm4 2.2l-1.2-.6.3-.6.8.4v.2h.1l.4-.7h-.1l-.1.1h-.1l-.8-.4.2-.4 1.3.7v.2h.1l.4-.7h-.1c0 .1 0 .1-.1.1H23l-2-1v.1s.1 0 .1.1v.1L20 61s0 .1-.1.1h-.1v.1l2 1h.1v.1l.4-.7h-.1c-.1 0-.1.1-.2 0zm11.7 3.3h1v-.1h-.1v-.1l-.8-1.5c.1-.1.4-.5.5-.6l.3-.3c.1-.1.1-.1.2-.1v-.1h-1v.1h.1v.1l-.1.1s-.1.1-.1.2c-.1.1-.8.8-.8.9v-1.1-.1h.1v-.1l-.8-.2v.1h.1v.1l-.1 2.4v.1h-.1v.1l.9.1v-.1h-.1v-.6l.4-.5s.5.9.5 1v.1c.1-.1.1 0-.1.1.1-.1.1-.1 0 0zm-19-7.3l.8.6.1-.1V58v-.1l.4-1.7c.1 0 .6-.1.8-.1H17.4l.1-.1-.8-.6V55.7H16.4c-.1 0-1.1.1-1.2.1l.8-.9h.2v-.1l-.7-.6V54.5l-1.6 1.8h-.1-.1v.1l.7.6.1-.1s0-.1-.1-.1v-.1l.3-.4.7-.1-.2 1v.1h-.1c-.3.3-.3.3-.4.3zm22.4 7.1l.8-.1v-.1h-.1c0-.1-1-2.1-1-2.2 0-.1-.1-.1-.1-.2 0 0 0-.1.1-.1v-.1l-1 .1v.1s.1 0 .1.1c0 0 0 .1-.1.3 0 .2-.5 1.9-.6 2.2v.1h-.1v.1h.7v-.1-.1l.1-.3 1.1-.1.1.3v.1c.1-.1.1 0 0 0 .1 0 0 0 0 0zm-.3-.9H36l.3-1.1.5 1.1zm-27.4-12l.5.7h.1v-.1-.1c.1-.1 1.4-1.9 1.4-2l.1-.1h.2l-.7-.9h-.1v.1s-.1 0-.3.1c-.2 0-1.9.5-2.2.6h-.2l.4.6h.2l.3-.1.6 1-.2.3s0 .1-.1.1c.1-.2.1-.2 0-.2.1-.1.1-.1 0 0zm.7-.8l-.5-.7 1.1-.3-.6 1zm-4.4-6.6l.3.8h.1v-.1c.1-.1 1.8-1.5 1.9-1.5l.1-.1h.2l-.3-1h-.1v.1h-.3c-.2 0-2-.1-2.3-.1h-.1v-.1h-.1l.2.7H5.9l.4 1.1-.3.2H5.7c.1 0 0 0 0 0zm.8-.6l-.2-.8 1.2.1-1 .7zm17.9 19.4l.8.3v-.1-.1-2.4-.2h.1v-.1l-1-.4v.2l-.2.2c-.1.1-1.3 1.5-1.5 1.8h-.1-.1v.1l.7.3v-.1-.1-.1s.2-.2.2-.3l1.1.4v.6c0-.1 0-.1 0 0zm.1-1.1l-.8-.3.8-.9v1.2zm4.3-.6h-.5c-.2 0-.3.1-.5.2-.1.1-.3.2-.4.4-.1.2-.2.4-.2.6-.1.2-.1.5 0 .7 0 .2.1.3.2.5.1.1.2.2.4.3.1.1.3.1.4.2h.5c.2 0 .3-.1.5-.1.1-.1.3-.2.4-.4.1-.2.2-.4.2-.6 0-.2.1-.5 0-.6 0-.2-.1-.4-.2-.5-.1-.1-.2-.3-.4-.3-.1-.3-.2-.3-.4-.4zm-.1.7c.1 0 .2.1.2.1l.2.2c0 .1.1.2.1.3v.3c0 .1-.1.2-.1.3l-.2.2c-.1 0-.1.1-.2.1h-.3c-.1 0-.2 0-.2-.1l-.2-.2c-.1-.1-.1-.2-.1-.3v-.3c0-.1.1-.2.1-.3l.2-.2c.1 0 .2-.1.2-.1h.3zm32.8-22.1v.5c0 .2.1.3.2.5.1.1.2.3.4.4.2.1.4.2.6.2.2.1.5.1.6 0 .2 0 .4-.1.5-.2.1-.1.2-.2.3-.4.1-.1.1-.3.2-.4v-.5c0-.2-.1-.3-.2-.5-.1-.1-.2-.3-.4-.4-.2-.1-.4-.2-.6-.2h-.6c-.2 0-.3.1-.5.2-.1.1-.2.2-.3.4-.1.1-.2.2-.2.4zm.6.1c0-.1.1-.2.1-.2 0-.1.1-.1.2-.2s.2-.1.3-.1h.3c.1 0 .2.1.3.1.1 0 .1.1.2.2s.1.2.1.2v.3c0 .1-.1.2-.1.2 0 .1-.1.1-.2.2s-.2.1-.3.1h-.3c-.1 0-.2-.1-.3-.1-.1 0-.1-.1-.2-.2 0-.1-.1-.2-.1-.2v-.3zm-36.6-3.1l1.2.5-.1-.6-1.1-.5v.6zm3.6 3.5c-.3-.1-.4-.2-.5-.2l-.2-.9c-.1-.5-.2-1.2-.2-1.3l-.6-.2c0 .1.2 1 .2 1l.1.5c0 .1.2.9.2 1.1l1 .5v-.5zm3 1.7c0-.2.3-1.3.4-1.4.1.2.4.9.6 1.3.2-.3.6-1.2.7-1.3 0 .1.4 1.3.5 1.6l.4-.2c-.1-.3-.7-2-.8-2.4-.1.2-.6 1.3-.7 1.5-.2-.4-.6-1.4-.8-1.7-.1.3-.7 2.2-.7 2.3l.4.3zm3.3.1c.1-.2.2-.6.2-.7l.9-.1c0 .1.2.5.3.6l.4-.3c-.2-.3-.8-1.8-1.1-2.4-.2.4-1 2.3-1.1 2.5l.4.4zm.4-1.1c.1-.1.3-.7.3-.8 0 .1.3.6.3.8h-.6zm2.9-.2c-.2.1-.5.2-.6.3l.1-.8c.1-.5.2-1.2.2-1.3l-.5.2c0 .1-.1 1-.1 1l-.1.5c0 .1-.1.9-.2 1.1.2-.1 1-.4 1-.4l.2-.6zm2.9-.7c.1-.2.7-1.6.8-1.8 0 .1.1.8.2 1.2.3-.4.9-1.5 1-1.6v1.5l.5-.4V37c-.2.3-.9 1.6-1.1 1.9 0-.2-.2-1.1-.2-1.4-.2.4-1.3 2.8-1.4 3l.2-.1zm2.9-1.2c.1-.2.4-.7.5-.8l.9-.4v.7l.5-.5c0-.3-.1-1.7-.2-2.2-.3.5-1.7 2.8-1.9 3.1l.2.1zm.7-1.3c.1-.2.5-.8.6-1v.7l-.6.3zm-6 3.4c.1-.2.3-.7.4-.8l.9-.4s.1.5.2.6l.5-.5c-.1-.2-.5-1.5-.6-2-.3.5-1.3 2.6-1.5 2.9l.1.2zm.6-1.2c.1-.2.4-.8.4-.9 0 .1.1.5.1.7l-.5.2zm-14.3-.7c-.1-.2-1.3-2.6-1.6-3 0 .3-.1 1.2-.1 1.4-.2-.3-1-1.6-1.2-1.9 0 .4.1 2.1.1 2.4l.5.4c0-.3-.1-1.4-.1-1.5.1.2.8 1.3 1.1 1.7 0-.4.1-1.1.1-1.2l.9 1.8.3-.1zm2.3.9c-.2-.3-1.3-2.3-1.6-2.7-.1.5-.4 1.7-.5 1.9l.5.5c0-.1.1-.5.1-.6l.9.3c0 .1.3.5.4.7l.2-.1zM26.3 39c0-.1.1-.5.1-.6.1.2.4.7.5.9l-.6-.3zm5.2 2.9c-.1-.3-1.2-2.5-1.4-3-.2.5-.6 1.8-.7 2.1l.5.5c0-.1.1-.6.2-.6l.8.4c0 .1.3.6.3.8l.3-.2zm-1.4-1.4c0-.1.1-.6.1-.7.1.2.3.8.4.9l-.5-.2zm1.3 7.9h-5.3c-.2-.8-.5-1.7-.7-2.6l-.6-.3c.2 1 .4 2 .7 2.9h-7.1c-2.2-3.9-3.4-8.6-3.5-13.7h4.4l-.2-.6h-4.2c0-5.1 1.3-9.8 3.5-13.7h7.1c-.3 1.1-.6 2.3-.8 3.5 0 0 .2 0 .3.1l.2.1c.2-1.3.5-2.5.9-3.7h3.2l.3-.6h-3.3c1.5-4.8 3.6-8.2 6.1-9.5H32c-.2 0-.8.1-.8.1-1.6 1.2-3.1 3.3-4.3 6.3-.4 1-.8 2-1.1 3.1h-6.9c2.4-4.1 5.9-7.3 9.9-8.8h-.2c-.2.1-.9.2-.9.2-.9.2-2.2.8-2.2.8-2.9 1.8-5.3 4.5-7.2 7.8h-2.9l-.4.6h3c-2.1 3.9-3.4 8.6-3.4 13.7h-4v.6h4c0 5.1 1.3 9.8 3.4 13.7h-2.9s.4.5.4.6h2.8c1.8 3.2 4.2 5.8 7 7.7 0 0 1 .4 1.4.6 0 0 .9.3 1.3.4.2 0 .4.1.4.1-3.8-1.6-7.1-4.7-9.5-8.7h7c.3 1.1.7 2.2 1.1 3.1 1.2 2.9 2.6 4.9 4.2 6.2 0 0 .5.1.9.1h.3c-2.4-1.3-4.6-4.7-6-9.4h6.4l-1.4-.7zm27-13.7zm0 0v-.6h-3.9c-.1-5.1-1.3-9.8-3.4-13.7H54l-.4-.6h-2.8c-1.8-3.2-4.2-5.8-7.1-7.7 0 0-.2-.1-.3-.1-.1-.1-.9-.3-.9-.3-.8-.3-2.1-.6-2.1-.6 3.9 1.6 7.3 4.7 9.7 8.8h-6.9c-.3-1.1-.7-2.1-1.1-3.1-1.2-2.9-2.7-5-4.3-6.2 0 0-.3 0-.4-.1-.2 0-.8-.1-.8-.1 2.5 1.2 4.7 4.7 6.1 9.5h-1s.1.2.1.6h1.1c.3 1.2.6 2.4.9 3.7 0 0 .3-.1.4-.2h.1c-.2-1.2-.5-2.4-.8-3.5h7.1c2.2 3.9 3.5 8.6 3.5 13.7h-4.2l-.2.6H54c0 5.1-1.3 9.8-3.5 13.7h-7.1c.3-.9.5-1.9.7-2.9l-.6.3c-.2.9-.4 1.8-.7 2.6h-5.3l-1.2.5h6.4c-1.4 4.7-3.5 8.1-6 9.4 0 0 .6-.1.8-.1.2 0 .5-.1.5-.1 1.6-1.2 3-3.3 4.2-6.2.4-1 .8-2 1.1-3.1h7c-2.3 4-5.6 7-9.3 8.7 0 0 1-.3 1.7-.5 0 0 1-.4 1.3-.5l.2-.1c2.7-1.8 5.1-4.4 6.8-7.6h2.7c.1-.1.4-.6.4-.6h-2.9c2.1-3.9 3.4-8.6 3.4-13.7h3.8zm-11.8-5l1.2-3.3c-1.6.3-5 1.9-10.3 7.1l9.1-3.8zM44.2 25c-.7.2-3.1 1.4-6.3 7 1.3-1.4 3.8-3.5 5.3-4.5l1-2.5zm-14.3 2.8c.5 1.1 2 2.6 4.6 2.6 2.5 0 4-1.5 4.6-2.6h-9.2zm9.6-1.5H29.4c-.2 0-.4.2-.4.4s.2.4.4.4h10.2c.2 0 .4-.2.4-.4-.1-.2-.2-.4-.5-.4zm-8.2 7.2c-5.2-5.2-8.6-6.8-10.3-7.1l1.2 3.3 9.1 3.8zm-5.7-6c1.5 1 4 3.1 5.3 4.5-3.2-5.6-5.6-6.8-6.3-7l1 2.5zm11 7.5l.4-4.4c-.6.3-1.2.4-2 .5l-.4 7.3c0 .1-.1.1-.1.1-.1 0-.1 0-.1-.1l-.5-7.4c-.8-.1-1.4-.2-2-.5l.4 4.4L18.2 29c.4 1.1 5.6 14.7 5.6 14.9l8.9 4 .2-3.5s0-.1.1-.1c0 0 .1 0 .1.1l.3 3.8.3 3.6c0 .3.3.6.6.6s.6-.3.6-.6l.3-3.6.3-3.8s0-.1.1-.1c0 0 .1 0 .1.1L36 48l8.9-4c.1-.2 5.2-13.8 5.6-14.9L36.6 35zm1.7-12c.1-.3.1-.5.1-.7 0-.5-.1-.8-.3-1.2-.1-.3-.2-.6-.3-1-.1-.5-.1-1-.1-1.4v-.3c-.2.1-.5.3-.7.4-2.1 1.1-4.9 2.7-4.9 6.6v.3h4.2c.2-.1 1.7-1.5 2-2.7zm1.6-4.9c-.5-1.3.1-3.1.1-3.1-2.8.7-3.4 2.4-4.2 2.5-.7.1-.5-1.5-.5-1.5s-4 2-5.4 5.3c-1.2 2.8-.1 4.4-.1 4.4h1.5c-.1-4.7 3.1-6.4 5.3-7.6.5-.3 1-.5 1.3-.8l.8-.5-.1.9s-.2 1.1 0 2.2l.3.9c.3.7.5 1.3.2 2.5-.3 1-1.1 1.9-1.6 2.5h1.1s1.1-.5 2-2.4c.7-2.6-.1-3.6-.7-5.3zm-9.2 37c0-.1 0-.1 0 0 .1-.1.1-.1 0 0 .1-.1.1-.1.2-.1h.1v1.3h-.1.6v-1.8-.1h.1-.7v.2h-.1-.1v-.1.6zm1.8.5l-.3.5h.8c.2 0 .3 0 .4-.1.1 0 .3-.1.4-.2l.3-.3c.1-.1.1-.3.1-.4 0-.2 0-.3-.1-.4 0-.1-.1-.2-.2-.3-.1-.1-.2-.1-.3-.2-.1 0-.3-.1-.4-.1h-.3c-.1 0-.2.1-.3.1-.1 0-.2.1-.2.2s-.1.2-.1.3c0 .1 0 .2.1.3 0 .1.1.2.2.2.1.1.2.1.2.1h.6c.1 0 .2-.1.4-.1 0 .1 0 .2-.1.2 0 .1-.1.1-.2.2-.1 0-.1.1-.2.1H32.7s-.1 0-.1-.1c-.1.1-.1.1-.1 0zm.6-1h.2s.1 0 .1.1v.2l-.1.1h-.1-.1-.1-.1s-.1 0-.1-.1v-.1-.1l.1-.1h.2zm2.5-.3c-.1 0-.3 0-.4.1-.1 0-.2.1-.3.2-.1.1-.2.2-.2.3-.1.1-.1.3-.1.4 0 .1 0 .3.1.4.1.1.1.2.2.3.1.1.2.2.3.2.1.1.2.1.4.1.1 0 .3 0 .4-.1.1 0 .2-.1.3-.2.1-.1.2-.2.2-.3.1-.1.1-.3.1-.4 0-.1 0-.3-.1-.4-.1-.1-.1-.2-.2-.3-.1-.1-.2-.2-.3-.2-.2-.1-.3-.1-.4-.1zm0 .4h.2c.1 0 .1.1.1.1 0 .1.1.1.1.2v.4c0 .1 0 .1-.1.2 0 .1-.1.1-.1.1h-.4c-.1 0-.1-.1-.1-.1 0-.1-.1-.1-.1-.2v-.2-.2c0-.1 0-.1.1-.2 0-.1.1-.1.1-.1h.2zm1.4 0h1.2l-.8 1.3-.1.1h-.1H37.9V56v-.1s0-.1.1-.1l.7-1.3V54v.1H37V54v.7c-.1 0-.1 0 0 0-.1 0 0 0 0 0zM54.3 65v.2h-.7V67h-.2v-1.8h-.7V65h1.6zm2.1 1.9l-.1-1.3v-.4c-.1.2-.1.3-.2.5l-.5 1.2h-.2l-.5-1.3c-.1-.1-.1-.3-.2-.5v.4l-.1 1.3h-.2l.2-1.9h.3l.5 1.2c.1.1.1.3.2.5 0-.2.1-.3.1-.5l.5-1.2h.3l.2 1.9h-.3z"/></svg>